# xmcd CD database file
#
# Track frame offsets:
#	150
#	15283
#	25402
#	35797
#	45786
#	57519
#	69441
#	80000
#	90448
#	100939
#	112375
#	121217
#	132983
#	144708
#	156070
#	167188
#	177524
#	194463
#	203209
#	214160
#
# Disc length: 3014 seconds
#
# Revision: 0
# Processed by: cddbd v1.5.2PL0 Copyright (c) Steve Scherf et al.
# Submitted via: CDex 1.51
#
DISCID=210bc414
DTITLE=Waylon Jennings - Johnny Cash - Willie Nelson - The Kings of Country Disk 2
DYEAR=2012
DGENRE=Country
TTITLE0=WillieNelson_FaceOfAFighter
TTITLE1=JohnnyCash_GetRhythm
TTITLE2=WaylonJennings_WhiteLightning
TTITLE3=JohnnyCash_BalladOfATeenageQueen
TTITLE4=WillieNelson_SomeOtherTime
TTITLE5=WaylonJennings_Crying
TTITLE6=JohnnyCash_ColdColdHeart
TTITLE7=WillieNelson_BlameItOnTheTimes
TTITLE8=WaylonJennings_Lorena
TTITLE9=JohnnyCash_BigRiver
TTITLE10=WaylonJennings_JoleBlon
TTITLE11=WillieNelson_TouchMe
TTITLE12=JohnnyCash_SoDoggoneLonesome
TTITLE13=WaylonJennings_SallyWasAGoodOldGirl
TTITLE14=WillieNelson_ANewWayToCry
TTITLE15=JohnnyCash_YouWinAgain
TTITLE16=WillieNelson_ILetMyMindWander
TTITLE17=WaylonJennings_LovesGonnaLiveHere
TTITLE18=JohnnyCash_Belshazzar
TTITLE19=WillieNelson_EndOfUnderstanding
EXTD=YEAR: 2012
EXTT0=
EXTT1=
EXTT2=
EXTT3=
EXTT4=
EXTT5=
EXTT6=
EXTT7=
EXTT8=
EXTT9=
EXTT10=
EXTT11=
EXTT12=
EXTT13=
EXTT14=
EXTT15=
EXTT16=
EXTT17=
EXTT18=
EXTT19=
PLAYORDER=
